<svg width="221" height="46" viewBox="0 0 221 46" fill="none" xmlns="http://www.w3.org/2000/svg">
<path d="M16.5308 29.4979C15.8522 29.4979 15.3061 28.9531 15.3061 28.2758V20.6415C15.3061 17.1077 12.4212 14.2294 8.87773 14.2294C5.33426 14.2294 2.4494 17.1077 2.4494 20.6415C2.4494 24.1754 5.33426 27.0536 8.87773 27.0536H10.5216C11.2001 27.0536 11.7463 27.5984 11.7463 28.2758C11.7463 28.9531 11.1965 29.4979 10.5216 29.4979H8.87773C3.98255 29.4979 0 25.5246 0 20.6415C0 15.7584 3.98255 11.7852 8.87773 11.7852C13.7729 11.7852 17.7555 15.7584 17.7555 20.6415V28.2758C17.7555 28.9513 17.2057 29.4979 16.5308 29.4979Z" fill="#1FE0BF"/>
<path d="M21.0196 29.4975C20.341 29.4975 19.7949 28.9527 19.7949 28.2754V2.22018C19.7949 1.54283 20.3447 0.998047 21.0196 0.998047C21.6946 0.998047 22.2443 1.54283 22.2443 2.22018V28.279C22.2443 28.9545 21.6946 29.5011 21.0196 29.5011V29.4975Z" fill="#1FE0BF"/>
<path d="M52.7544 29.5336C47.8012 29.5336 43.7715 25.5131 43.7715 20.5773C43.7715 15.6416 47.8012 11.6211 52.7544 11.6211C57.7077 11.6211 61.7338 15.6416 61.7338 20.5773C61.7338 25.5131 57.7041 29.5336 52.7544 29.5336ZM52.7544 14.0617C49.1547 14.0617 46.2245 16.9836 46.2245 20.5755C46.2245 24.1675 49.1529 27.0893 52.7544 27.0893C56.356 27.0893 59.2844 24.1675 59.2844 20.5755C59.2844 16.9836 56.3542 14.0617 52.7544 14.0617Z" fill="#1FE0BF"/>
<path d="M37.5683 28.3711C40.2971 26.8312 42.1441 23.9166 42.1441 20.5734C42.1441 15.6341 38.1144 11.6172 33.1612 11.6172C28.2079 11.6172 24.1818 15.6377 24.1818 20.5734C24.1818 25.5092 28.0646 29.3717 32.889 29.517C32.9126 29.517 32.9326 29.5297 32.9561 29.5297C36.5559 29.5297 39.4861 32.4515 39.4861 36.0435C39.4861 39.6354 36.5577 42.5573 32.9561 42.5573C29.3546 42.5573 26.4262 39.6354 26.4262 36.0435V33.601C26.4262 32.9255 25.8765 32.3789 25.2015 32.3789C24.5266 32.3789 23.9768 32.9237 23.9768 33.601V36.0435C23.9768 40.9828 28.0065 44.9997 32.9561 44.9997C37.9057 44.9997 41.9391 40.981 41.9391 36.0435C41.9391 32.7875 40.181 29.9383 37.5665 28.3693V28.3729L37.5683 28.3711ZM26.633 20.5734C26.633 16.9815 29.5614 14.0596 33.163 14.0596C36.7645 14.0596 39.6929 16.9815 39.6929 20.5734C39.6929 24.1654 36.7645 27.0872 33.163 27.0872C29.5614 27.0872 26.633 24.1654 26.633 20.5734Z" fill="#1FE0BF"/>
<path d="M179.889 4.91406C178.866 4.91406 178.035 5.74577 178.035 6.76996C178.035 7.79415 178.866 8.62586 179.889 8.62586C180.913 8.62586 181.743 7.79415 181.743 6.76996C181.743 5.74577 180.914 4.91406 179.889 4.91406Z" fill="#FDFDFD"/>
<path d="M137.439 18.6788L144.049 12.0633C144.526 11.5857 144.523 10.8103 144.045 10.3327C143.568 9.85508 142.793 9.85145 142.316 10.329L134.968 17.6836C134.941 17.7054 134.908 17.7127 134.883 17.7363H134.885C134.389 18.203 134.362 18.9748 134.825 19.4687L143.753 29.026C144.214 29.52 144.989 29.5417 145.48 29.0805C145.972 28.6192 146.003 27.8438 145.54 27.3517L137.437 18.6788H137.439Z" fill="#FDFDFD"/>
<path d="M179.841 11.5645C179.166 11.5645 178.616 12.1092 178.616 12.7866V28.2748C178.616 28.9503 179.162 29.4969 179.841 29.4969V29.5005C180.516 29.5005 181.065 28.9558 181.065 28.2784V12.7866C181.065 12.1111 180.516 11.5645 179.841 11.5645Z" fill="#FDFDFD"/>
<path d="M104.779 11.7852C99.8837 11.7852 95.9011 15.7584 95.9011 20.6415C95.9011 25.5246 99.8837 29.4979 104.779 29.4979H107.13C107.805 29.4979 108.355 28.9531 108.355 28.2758C108.355 27.5984 107.809 27.0536 107.13 27.0536H104.779C101.235 27.0536 98.3505 24.1754 98.3505 20.6415C98.3505 17.1077 101.235 14.2294 104.779 14.2294C108.322 14.2294 111.207 17.1077 111.207 20.6415V28.2758C111.207 28.9513 111.753 29.4979 112.432 29.4979C113.11 29.4979 113.657 28.9531 113.657 28.2758V20.6415C113.657 15.7584 109.674 11.7852 104.779 11.7852Z" fill="#FDFDFD"/>
<path d="M132.266 0.998047C131.591 0.998047 131.041 1.54283 131.041 2.22018V28.2754C131.041 28.9509 131.587 29.4975 132.266 29.4975V29.5011C132.941 29.5011 133.491 28.9563 133.491 28.279V2.22018C133.491 1.54465 132.941 0.998047 132.266 0.998047Z" fill="#FDFDFD"/>
<path d="M215.568 28.3693C218.295 26.8294 220.142 23.9148 220.142 20.5734C220.142 15.6341 216.112 11.6172 211.159 11.6172C206.205 11.6172 202.179 15.6377 202.179 20.5734C202.179 25.5092 206.062 29.3717 210.887 29.517C210.91 29.517 210.93 29.5297 210.954 29.5297C214.553 29.5297 217.484 32.4515 217.484 36.0435C217.484 39.6354 214.555 42.5573 210.954 42.5573C207.352 42.5573 204.424 39.6354 204.424 36.0435V33.601C204.424 32.9255 203.874 32.3789 203.199 32.3789C202.524 32.3789 201.974 32.9237 201.974 33.601V36.0435C201.974 40.9828 206.004 44.9997 210.954 44.9997C215.903 44.9997 219.937 40.981 219.937 36.0435C219.937 32.7875 218.18 29.9401 215.568 28.3711V28.3693ZM204.631 20.5734C204.631 16.9815 207.559 14.0596 211.161 14.0596C214.762 14.0596 217.69 16.9815 217.69 20.5734C217.69 24.1654 214.762 27.0872 211.161 27.0872C207.559 27.0872 204.631 24.1654 204.631 20.5734Z" fill="#FDFDFD"/>
<path d="M128.718 12.9498C127.405 12.1816 125.875 11.7422 124.246 11.7422C119.351 11.7422 115.967 15.7155 115.967 20.5986V28.2328C115.967 28.9083 116.517 29.4549 117.192 29.4549C117.867 29.4549 118.416 28.9101 118.416 28.2328V20.5986C118.416 17.0647 120.703 14.1864 124.246 14.1864C125.431 14.1864 126.541 14.5079 127.496 15.0672L127.452 15.0454C127.637 15.158 127.853 15.2215 128.085 15.2215C128.76 15.2215 129.308 14.6731 129.308 13.9976C129.308 13.5527 129.072 13.1641 128.718 12.9498Z" fill="#FDFDFD"/>
<path d="M154.929 11.5859C149.976 11.5859 145.946 15.6064 145.946 20.5422C145.946 25.4779 149.976 29.4984 154.929 29.4984C157.426 29.4984 159.688 28.4724 161.317 26.8254L161.357 26.7818C161.559 26.5584 161.686 26.2588 161.686 25.9265C161.686 25.2346 161.149 24.6735 160.486 24.6735C160.158 24.6735 159.86 24.8115 159.645 25.0348L159.63 25.0512C158.442 26.2824 156.776 27.0523 154.931 27.0523C151.331 27.0523 148.401 24.1305 148.401 20.5386C148.401 16.9466 151.327 14.0113 154.929 14.0131C158.229 14.0149 159.889 16.8018 160.056 18.8951L152.265 18.8951C151.59 18.8951 151.044 19.4453 151.044 20.1209C151.044 20.7964 151.589 21.3466 152.265 21.3466L161.499 21.3466C162.15 21.3466 162.676 20.7655 162.707 20.1209C162.489 15.7756 159.661 11.5859 154.929 11.5859Z" fill="#FDFDFD"/>
<path d="M175.582 24.6707C175.254 24.6707 174.956 24.8087 174.74 25.0321L174.726 25.0484C173.537 26.2796 172.928 27.0496 170.928 27.0496C167.646 27.0496 167.054 24.5654 167.054 20.6302H167.033C167.036 20.5975 167.053 20.5685 167.053 20.534V14.3344H174.72C175.395 14.3344 175.941 13.7878 175.941 13.1086H175.945C175.945 12.4331 175.401 11.8828 174.724 11.8828H167.053V2.22018C167.053 1.54465 166.503 0.998047 165.828 0.998047C165.153 0.998047 164.603 1.54283 164.603 2.22018V20.5304C164.603 20.5703 164.621 20.603 164.627 20.6429H164.607C164.607 25.5805 165.979 29.4957 170.93 29.4957C173.428 29.4957 174.787 28.4697 176.417 26.8226L176.457 26.779C176.658 26.5557 176.785 26.256 176.785 25.9237C176.785 25.2318 176.248 24.6707 175.584 24.6707H175.582Z" fill="#FDFDFD"/>
<path d="M199.236 15.5544C198.89 14.9897 198.482 14.4667 198.014 14.0018C196.528 12.5309 194.488 11.6211 192.238 11.6211C189.989 11.6211 187.947 12.5327 186.461 14.0036V12.8432C186.461 12.5055 186.323 12.2022 186.102 11.9807C185.881 11.7609 185.576 11.6247 185.239 11.6247C184.901 11.6247 184.596 11.7609 184.375 11.9807C184.154 12.2004 184.016 12.5055 184.016 12.8432V28.2788C184.016 28.6165 184.152 28.9198 184.373 29.1413C184.594 29.3611 184.899 29.4973 185.237 29.4973V29.5009C185.572 29.5009 185.879 29.3647 186.1 29.145C186.322 28.9252 186.46 28.6202 186.46 28.2824V19.8364C186.465 16.6531 189.054 14.0654 192.237 14.0654C195.419 14.0654 197.994 16.6404 198.012 19.8128V28.2788C198.012 28.6165 198.148 28.9198 198.369 29.1413C198.59 29.3611 198.895 29.4973 199.233 29.4973V29.5009C199.568 29.5009 199.875 29.3647 200.096 29.145C200.318 28.9252 200.456 28.6202 200.456 28.2824V19.8709C200.456 19.8709 200.456 19.8564 200.456 19.8473C200.456 19.8382 200.456 19.8328 200.456 19.8237C200.452 18.2584 200 16.7984 199.236 15.5544Z" fill="#FDFDFD"/>
<path d="M91.8328 13.9287C90.3468 12.4523 88.302 11.5371 86.0467 11.5371C83.7915 11.5371 81.7539 12.4487 80.2679 13.9214C79.7998 14.3845 79.3952 14.9075 79.0487 15.4723C78.7021 14.9075 78.2939 14.3845 77.8258 13.9196C76.3398 12.4487 74.3005 11.5389 72.0507 11.5389C69.8008 11.5389 67.7597 12.4505 66.2737 13.9214C66.2737 13.9214 65.6441 14.6151 65.176 15.218C64.7278 15.7973 63.8315 17.5443 63.8315 19.3203V28.1966C63.8315 28.5344 63.9676 28.8376 64.189 29.0592C64.4103 29.2789 64.7151 29.4151 65.0526 29.4151V29.4187C65.3883 29.4187 65.6949 29.2825 65.9163 29.0628C66.1376 28.8431 66.2755 28.538 66.2755 28.2002V19.7779C66.2755 19.7779 66.2755 19.7706 66.2755 19.767C66.2755 19.7633 66.2755 19.7597 66.2755 19.7561C66.2828 16.5727 68.8701 13.985 72.0525 13.985C75.2349 13.985 77.8095 16.56 77.8276 19.7325C77.8276 19.7452 77.8276 19.7561 77.8276 19.767C77.8276 19.7779 77.8276 19.7888 77.8276 19.8015V28.1984C77.8276 28.5362 77.9637 28.8394 78.185 29.061C78.4064 29.2807 78.7112 29.4169 79.0487 29.4169V29.4205C79.3843 29.4205 79.691 29.2843 79.9123 29.0646C80.1337 28.8449 80.2716 28.5398 80.2716 28.202V19.7924V19.7688C80.2716 16.58 82.8643 13.9868 86.0485 13.9868C89.2328 13.9868 91.8346 16.58 91.8346 19.7688V28.3237C91.8346 28.6615 91.9707 28.9647 92.192 29.1863C92.4134 29.406 92.7182 29.5422 93.0556 29.5422V29.5458C93.3913 29.5458 93.6979 29.4096 93.9193 29.1899C94.1406 28.9702 94.2785 28.6651 94.2785 28.3273L94.2695 19.7688C94.2695 17.4898 93.3369 15.4232 91.8346 13.9323L91.8328 13.9287Z" fill="#FDFDFD"/>
</svg>
